<svg xmlns="http://www.w3.org/2000/svg" viewBox="0 0 1107.14 314.34"><defs><style>.cls-1{fill:#fff;}</style></defs><g id="Layer_2" data-name="Layer 2"><g id="Layer_1-2" data-name="Layer 1"><path class="cls-1" d="M295.1,81.71c-29.61,14.64-65,32.14-94.69,46.85l28.5,14.22v.05H229L257.6,157.1v28.68L229,171.5l-.09,0-57.33-28.63h0V114.15h0l83-41.08C180.49-11.44,42.72,31.23,29.36,142.83c0,.24-.06.51-.08.75a129.68,129.68,0,0,0,6.65,56.59H6c-20.7-71.26,13.28-149.39,79.5-182.89C160.55-21.62,254.86,7.42,295.1,81.71Z"/><path class="cls-1" d="M314.2,150l-.09-1.83c0-.13,0-.25,0-.38a.45.45,0,0,0,0-.12,154.94,154.94,0,0,0-5.66-33.47H278.52a129.4,129.4,0,0,1,5.26,66.27l-.12.63c-.05.29-.11.58-.17.87q-.15.83-.33,1.62c-.09.5-.2,1-.31,1.48a.83.83,0,0,1,0,.15l0,.17c-.78,3.53-1.72,7-2.81,10.44-.2.69-.41,1.35-.66,2q-.21.67-.45,1.35a128,128,0,0,1-21.26,38.49h0c-.37.46-.74.92-1.13,1.37l-1,1.25-.09.09a3.47,3.47,0,0,1-.25.29l0,0q-1,1.19-2,2.34c0,.07-.12.13-.18.2l-.05.05c-.7.79-1.43,1.56-2.15,2.33h0l-.08.08c-27.13,29-68.11,44-107.68,39.32h0a126.67,126.67,0,0,1-28.67-6.57h0a128.65,128.65,0,0,1-54.33-37.18l54.33-26.94h0l28.59-14.16,0,0,0,0h0V171.5l-28.68-14.16h0L56.86,128.6v28.72l56.92,28.37c-19.86,9.82-49.18,24.32-69,34.12h0c-6,2.95-19.76,9.77-25.54,12.65a157.7,157.7,0,0,0,94.93,75.89h0a156,156,0,0,0,28.67,5.31h0a157.07,157.07,0,0,0,114.69-35.58h0a160.77,160.77,0,0,0,12.49-11.57l.42-.45c.26-.26.51-.51.75-.78.05,0,.09-.1.14-.14.53-.56,1.06-1.13,1.57-1.7.38-.39.74-.81,1.1-1.21l.14-.15q2.87-3.16,5.53-6.5c.4-.49.79-1,1.16-1.47l.86-1.11c.89-1.12,1.71-2.25,2.56-3.4,1.61-2.23,3.17-4.47,4.66-6.77.13-.19.24-.36.35-.55.36-.53.7-1.07,1-1.61l.24-.37c.13-.2.25-.39.37-.6A156.94,156.94,0,0,0,314.2,150ZM286.26,171.5v-.08l.15.08Z"/><polygon class="cls-1" points="690.58 76.63 690.58 105.4 607.73 208.28 607.73 208.74 690.58 208.74 690.58 237.71 570.3 237.71 570.3 208.64 652.6 105.87 652.6 105.4 570.3 105.4 570.3 76.63 690.58 76.63"/><polygon class="cls-1" points="982.08 76.63 969.56 104.48 956.28 134.03 932.32 187.32 932.23 187.51 932.23 237.71 900.7 237.71 900.7 191.18 898.97 187.32 861.73 104.48 895.08 104.48 905 126.54 915.65 150.22 916.03 149.36 936.21 104.48 948.73 76.63 982.08 76.63"/><polygon class="cls-1" points="1032.37 104.48 1032.37 143.37 1107.14 143.37 1107.14 168.46 1032.57 168.46 1032.57 168.69 1032.37 168.69 1032.37 209.56 1032.57 209.56 1032.57 209.88 1107.14 209.88 1107.14 237.71 1000.59 237.71 1000.59 76.63 1107.14 76.63 1107.14 104.48 1032.37 104.48"/><polygon class="cls-1" points="844.35 209.56 811.79 209.56 781.9 126.39 752.01 209.56 741.9 237.71 708.77 237.71 718.9 209.56 756.72 104.48 765.39 80.44 766.76 76.63 796.67 76.63 798.22 80.94 806.67 104.48 844.35 209.56"/><path class="cls-1" d="M471.88,76.63A80.15,80.15,0,1,0,552,156.79,80.16,80.16,0,0,0,471.88,76.63Zm0,27.85a52.31,52.31,0,1,1-52.3,52.31A52.3,52.3,0,0,1,471.88,104.48Z"/></g></g></svg>